<svg xmlns="http://www.w3.org/2000/svg" enable-background="new 0 0 500 500" viewBox="0 0 500 500"><circle cx="129.4" cy="114.2" r="28.6" fill="#ebebeb"/><circle cx="121.3" cy="123.9" r="6.6" fill="#e0e0e0"/><circle cx="122.5" cy="104.7" r="4.8" fill="#e0e0e0"/><circle cx="141.5" cy="120.6" r="3.3" fill="#e0e0e0"/><circle cx="140.6" cy="102.3" r="2.4" fill="#e0e0e0"/><circle cx="131.1" cy="92.8" r="1.8" fill="#e0e0e0"/><circle cx="109.3" cy="111.3" r="1.8" fill="#e0e0e0"/><circle cx="150.7" cy="113.6" r="1.2" fill="#e0e0e0"/><circle cx="134" cy="136.3" r="1.2" fill="#e0e0e0"/><polygon fill="#e0e0e0" points="212.7 158.9 211.4 164.2 214.9 168.2 209.5 168.6 206.8 173.3 204.8 168.3 199.5 167.1 203.6 163.6 203.1 158.2 207.7 161.1"/><polygon fill="#e0e0e0" points="94.4 365.7 89 366.6 86.7 371.5 84.3 366.7 78.9 366 82.7 362.2 81.7 356.8 86.5 359.3 91.3 356.7 90.4 362"/><polygon fill="#e0e0e0" points="425.3 110.9 430.6 111.6 434.3 107.6 435.2 112.9 440.2 115.2 435.4 117.7 434.8 123.1 430.9 119.4 425.6 120.4 428 115.6"/><polygon fill="#e0e0e0" points="389.1 386.5 394.2 384.6 395.4 379.3 398.8 383.5 404.2 383.1 401.3 387.7 403.3 392.7 398.1 391.3 393.9 394.7 393.7 389.3"/><polygon fill="#e0e0e0" points="67.6 201.6 70 206.4 75.3 207.2 71.5 211 72.4 216.3 67.6 213.8 62.8 216.3 63.7 211 59.8 207.2 65.2 206.4"/><g><path fill="#ebebeb" d="M388.9,171c-0.2,0.1-0.4,0.2-0.5,0.3c-2.7,1.6-5.5,3.2-8.3,4.7c-2.8,1.5-5.6,3-8.4,4.5
			c-2.8,1.5-5.7,3-8.7,4.3c-3,1.3-6,2.5-9,3.4c-0.8,0.2-1.5,0.4-2.3,0.6c-2-2.5-3.5-5.5-4.2-8.9c-0.1-0.3-0.1-0.7-0.2-1
			c-0.2-1.4-0.3-2.9-0.3-4.3c0.4-9.5,7.1-17.8,16.8-19.9c6.2-1.3,12.4,0.2,17.1,3.8c0.9,0.6,1.7,1.4,2.4,2.1
			C386,163.5,388,167,388.9,171z"/><path fill="#ebebeb" d="M389,171.2c0.2,0.9,0.3,1.7,0.4,2.5c0.9,10.5-6.1,20.4-16.7,22.6c-7.6,1.6-15.2-1.1-20.1-6.4
			c-0.3-0.3-0.6-0.7-0.9-1c0.8-0.2,1.5-0.4,2.3-0.6c3-0.9,6.1-2.1,9-3.4c3-1.3,5.8-2.8,8.7-4.3c2.8-1.5,5.6-3,8.4-4.5
			c2.8-1.5,5.5-3.1,8.3-4.7c0.2-0.1,0.4-0.2,0.5-0.3C388.9,171.1,388.9,171.1,389,171.2z"/><path fill="#e0e0e0" d="M399.6,159.5c-0.4-0.9-1.4-1.5-2.7-1.9c-0.6-0.2-1.3-0.3-2-0.4c-0.7-0.1-1.4-0.1-2.2-0.1
			c-3,0-6.1,0.3-9.3,0.9c-0.9,0.2-1.7,0.3-2.5,0.5c0.9,0.6,1.7,1.4,2.4,2.1c3-1.1,6-2,8.9-2.4c1.5-0.2,2.9-0.3,4.1-0.1
			c0.6,0.1,1.2,0.3,1.6,0.5c0.4,0.3,0.8,0.6,1,1c0.2,0.4,0.2,0.9,0.2,1.4c-0.1,0.5-0.3,1.1-0.6,1.6c-0.6,1.1-1.6,2.1-2.6,3.1
			c-1.1,1-2.3,2-3.6,2.9c-1.1,0.8-2.3,1.5-3.4,2.2c-0.2,0.1-0.4,0.2-0.5,0.3c-2.7,1.6-5.5,3.2-8.3,4.7c-2.8,1.5-5.6,3-8.4,4.5
			c-2.8,1.5-5.7,3-8.7,4.3c-3,1.3-6,2.5-9,3.4c-0.8,0.2-1.5,0.4-2.3,0.6c-2.3,0.6-4.5,0.9-6.6,1c-0.7,0-1.3,0-2,0
			c-0.6-0.1-1.2-0.2-1.7-0.3c-1-0.3-1.6-0.9-1.8-1.5c-0.3-1.4,1.1-3.3,3.1-5.2c1.4-1.3,2.9-2.6,4.6-3.8c-0.2-1.4-0.3-2.9-0.3-4.3
			c-0.2,0.1-0.4,0.3-0.6,0.4c-2.7,2-5.3,4.2-7.4,6.7c-0.5,0.6-1,1.2-1.4,1.9c-0.4,0.6-0.8,1.3-1.1,2c-0.6,1.3-0.7,2.7,0,3.8
			c0.3,0.5,0.8,0.9,1.4,1.2c0.6,0.3,1.3,0.5,2,0.6c1.4,0.2,3,0.2,4.6,0c2.7-0.3,5.4-0.8,8.1-1.4c0.5-0.1,0.9-0.2,1.4-0.3
			c3.2-0.8,6.3-1.7,9.6-2.7c3.2-1,6.4-2.2,9.6-3.5c5.8-2.5,11.5-5.8,16.3-9.6c0.4-0.3,0.7-0.6,1.1-0.9c2.5-2.1,4.8-4.3,6.6-6.6
			c0.5-0.6,0.9-1.1,1.3-1.7c0.4-0.6,0.7-1.2,1-1.7C399.8,161.6,400,160.4,399.6,159.5z"/><circle cx="369.8" cy="161.2" r="1.3" fill="#e0e0e0"/><circle cx="366.9" cy="177.8" r="1.3" fill="#e0e0e0"/><circle cx="353.6" cy="176.5" r="1.5" fill="#e0e0e0"/><circle cx="360.1" cy="166.7" r="2.2" fill="#e0e0e0"/><circle cx="380.5" cy="169.8" r="1.5" fill="#e0e0e0"/><circle cx="378" cy="187.4" r="2" fill="#e0e0e0"/><circle cx="367.4" cy="190.2" r="1.5" fill="#e0e0e0"/></g><g><path fill="#ebebeb" d="M308,124.9c0,0.3,0,0.6,0,0.9c-0.2,3.3-1.3,6.3-3.1,8.8c-2.2,3.1-5.4,5.4-9.1,6.4c-1.4,0.4-3,0.6-4.5,0.6
			c-4.1,0-7.9-1.5-10.8-3.9c-1.4-1.2-2.7-2.7-3.7-4.3c-1.1-1.9-1.9-4.1-2.2-6.4c-0.1-0.7-0.1-1.4-0.1-2.1c0-0.8,0.1-1.5,0.1-2.2
			c0.4-2.7,1.4-5.3,2.9-7.4c1-1.4,2.2-2.7,3.6-3.7c2.8-2.1,6.3-3.3,10-3.3c5.1,0,9.6,2.3,12.7,5.8c0.9,1,1.7,2.2,2.3,3.4
			c0.7,1.3,1.2,2.7,1.5,4.2C307.9,122.7,308,123.8,308,124.9z"/><path fill="#e0e0e0" d="M306.2 117.4c-1.8.8-3.6 1.5-5.4 2.2-4.4 1.8-8.2 2.1-12.6.2-3.8-1.7-7-3.7-10.7-4.5 1-1.4 2.2-2.7 3.6-3.7 5 1.8 9.7 6.4 15.2 5.1 2.5-.6 5-1.5 7.5-2.6C304.9 115 305.6 116.2 306.2 117.4zM308 124.9c0 .3 0 .6 0 .9-1.9.2-3.6.7-5 1.5-2.1 1.1-3.4 3.1-5.5 4.1-1.7.8-3.6 1-5.4.9-5.1-.3-9-3.3-13.8-4.7-1.2-.3-2.4-.5-3.6-.5-.1-.7-.1-1.4-.1-2.1 0-.8.1-1.5.1-2.2 3.6.2 6.9 1.5 10.3 3 4 1.8 8.3 3.6 12.3.7 1.8-1.3 3.1-2.8 5.2-3.6 1.6-.6 3.4-1 5.2-1.2C307.9 122.7 308 123.8 308 124.9zM304.9 134.7c-2.2 3.1-5.4 5.4-9.1 6.4-3.5-.2-6-2-9.4-2.9-2-.5-3.9-.6-5.9-.4-1.4-1.2-2.7-2.7-3.7-4.3 4.4-.6 9.3-.1 12.1 1 2.7 1 4.9 2.4 7.9 2.3 2.5-.1 5-1 7.4-1.8C304.4 134.8 304.7 134.8 304.9 134.7z"/></g><g><ellipse cx="219" cy="396.2" fill="#e0e0e0" rx="121.1" ry="18.2"/><polygon fill="#115072" points="245.4 307 262.7 305 260 316.5 244.7 314.4"/><path fill="#cc8b85" d="M318.9,254.6c-0.2-0.3-0.7-0.6-1.1-0.5c-0.4,0.1-0.7,0.4-0.9,0.7c-0.3,0.4-0.6,1-0.7,1.5
		c0.1-0.9,0.1-1.9,0.1-2.8c0-0.6-0.1-1.3-0.6-1.8c-0.3-0.2-0.7-0.3-1-0.2c-0.4,0.1-0.7,0.5-0.9,0.8s-0.3,0.8-0.4,1.2
		c0,0.1,0.4,2.4,0.3,2.6c0-0.7-0.5-3.7-0.7-4.4c-0.1-0.3-0.2-0.6-0.4-0.8c-0.2-0.2-0.5-0.4-0.9-0.4c-0.3,0-0.5,0.2-0.7,0.5
		c-0.2,0.2-0.3,0.5-0.4,0.8c-0.2,0.6-0.4,1.3-0.6,1.9c-0.2,0.6-0.2,1.2-0.5,1.7c-0.2-0.9-0.2-1.9-0.6-2.8c-0.1-0.2-0.2-0.4-0.3-0.5
		c-0.6-0.4-1.5,0-1.7,0.6c-1.1,3-0.6,6.9-1.5,10.3c-0.1,0.4-0.2,0.9-0.5,1.3c-0.2,0.1-0.3,0.2-0.5,0.2c-0.2,0-0.4-0.2-0.6-0.3
		c-0.1-0.1-0.2-0.3-0.3-0.4l0,0c-0.2-0.5-0.1-1-0.1-1.5c0-0.6-0.1-1.1-0.2-1.7c-0.1-0.5-0.3-1.1-0.7-1.4c-0.4-0.2-0.8-0.2-1.2,0
		s-0.6,0.6-0.7,1c0,0.3,0,0.5,0,0.8c0.1,0.7,0.1,1.5,0.2,2.2c0,0.7-0.1,1.4-0.2,2.1c-0.1,0.6-0.3,1.3-0.1,1.9c0,0.1,0,0.1,0,0.1
		c0.2,5,3.2,5.7,3.2,5.7c-0.5,1.1-1,2.3-1.5,3.4c-2.7,6-5.3,12.1-8,18.1c-1.6,3.7-3.1,6.3-4.7,10l-9.1-0.9
		c-1.1,7.5-2.8,14.9-3.4,22.5c0,0,0,0,0,0l19.6,0.5c2-0.2,3.4-0.7,4.3-1.3l0,0c4.8-1.9,5.1-6.8,5.1-6.8l11-44.7
		c2.5-3.6,2.5-11.5,2.5-11.5c0.1-0.4,0.1-0.8,0.1-1.2c0-0.1,0-0.3,0-0.4c0-1.7,0-3.5-0.4-5.1C319.3,255.3,319.2,254.9,318.9,254.6z"/><path fill="#135e91" d="M58.7 326.5v-29.3l66.3-90.9h37.8v89.7h17.4v30.6h-17.4v26.7h-35.5v-26.7H58.7zM130.1 246.9l-35.7 49.1h35.7V246.9zM195 277.1c0-22.6 4.6-40.5 13.8-53.7 9.2-13.2 23.8-19.8 43.9-19.8 20 0 34.6 6.6 43.8 19.8 9.2 13.2 13.9 31.1 13.9 53.7 0 22.7-4.6 40.7-13.9 54-9.2 13.3-23.8 19.9-43.8 19.9-20.1 0-34.8-6.6-43.9-19.9C199.6 317.8 195 299.8 195 277.1zM275.5 277.1c0-13-1.5-23-4.6-29.9-3.1-6.9-9.1-10.4-18.2-10.4-9.2 0-15.3 3.5-18.5 10.5-3.1 7-4.7 16.9-4.7 29.8 0 13 1.6 23 4.7 30.1 3.1 7 9.3 10.6 18.5 10.6 9 0 15.1-3.5 18.2-10.6C273.9 300.1 275.5 290.1 275.5 277.1zM328.8 326.5v-29.3l66.3-90.9h37.8v89.7h17.4v30.6h-17.4v26.7h-35.5v-26.7H328.8zM400.2 246.9l-35.7 49.1h35.7V246.9z"/><path fill="#0b3038" d="M49.7 326.5v-29.3l66.3-90.9h37.8v89.7h17.4v30.6h-17.4v26.7h-35.5v-26.7H49.7zM121.1 246.9l-35.7 49.1h35.7V246.9zM186 277.1c0-22.6 4.6-40.5 13.8-53.7 9.2-13.2 23.8-19.8 43.9-19.8 20 0 34.6 6.6 43.8 19.8 9.2 13.2 13.9 31.1 13.9 53.7 0 22.7-4.6 40.7-13.9 54-9.2 13.3-23.8 19.9-43.8 19.9-20.1 0-34.8-6.6-43.9-19.9C190.6 317.8 186 299.8 186 277.1zM266.5 277.1c0-13-1.5-23-4.6-29.9-3.1-6.9-9.1-10.4-18.2-10.4-9.2 0-15.3 3.5-18.5 10.5-3.1 7-4.7 16.9-4.7 29.8 0 13 1.6 23 4.7 30.1 3.1 7 9.3 10.6 18.5 10.6 9 0 15.1-3.5 18.2-10.6C264.9 300.1 266.5 290.1 266.5 277.1zM319.8 326.5v-29.3l66.3-90.9h37.8v89.7h17.4v30.6h-17.4v26.7h-35.5v-26.7H319.8zM391.2 246.9l-35.7 49.1h35.7V246.9z"/><path fill="#ffae9a" d="M221.1,307.5c0-0.1,0-0.1,0-0.2l0,0l3.7-30.2l0,0l0,0l0.1-0.6l0,0l0.6-4.7l0,0c0-0.5,0.1-1,0.1-1.5
				c1.5-12.7,11.5-22,22.1-20.7c10.7,1.3,17.1,12.4,16.8,25.8c-0.2,11.5-4.8,24-17.8,21.6l-1.6,13.2l0,0c0,0.1,0,0.1,0,0.2
				c-0.5,4.4-6.4,7.4-13,6.6C225.5,316.2,220.6,312,221.1,307.5z"/><path fill="#cc8b85" d="M246.8,297.1c0,0-4.7,3.5-12.3-5.4C234.5,291.8,238.7,296.6,246.8,297.1z"/><path fill="#211915" d="M241.3 271.4c.1-.6.3-1.1.7-1.6.4-.5.9-.9 1.6-.9.7 0 1.2.3 1.7.7.2.2.4.4.6.7.1.3.3.5.4.8-.2-.2-.4-.4-.6-.6-.2-.2-.4-.3-.6-.5-.5-.3-.9-.5-1.4-.5-.5 0-.9.3-1.3.6C242 270.5 241.6 271 241.3 271.4zM252 269.3c.1-.5.4-1 .7-1.4.4-.4.9-.8 1.5-.8.6 0 1.1.4 1.5.7.2.2.4.4.5.6.1.2.3.5.4.7-.2-.2-.4-.4-.6-.5-.2-.2-.4-.3-.6-.5-.4-.3-.8-.5-1.3-.5-.4 0-.9.2-1.2.5C252.7 268.5 252.3 268.8 252 269.3z"/><ellipse cx="241.3" cy="280.3" fill="#cc8b85" rx="3" ry="2" transform="rotate(-7.088 241.356 280.385)"/><path fill="#cc8b85" d="M249.3,282.2c8.8,3,0.1-9.4,0.1-9.4L249.3,282.2z"/><path fill="#13a7e3" d="M240.7,260.2c0,0,30.9,11,25.9-7.7c0,0-7.9-19.5-24.1-4.8l-3.7-2.8l2,3.3l-3.3-1.3l2,2.6
			c0,0-23.6,3.5-14.2,24.6c0,0,8,0.5,8.2,3.4l-0.7,4.9l2.3,0.4C235.1,282.7,236,259.9,240.7,260.2z"/><g><ellipse cx="228.5" cy="277.5" fill="#ffae9a" rx="5.4" ry="4.1" transform="rotate(-81.761 228.51 277.478)"/><path fill="#cc8b85" d="M226.3,277.9c0.2-0.6,0.4-1.3,0.6-1.9c0.2-0.6,0.5-1.2,1-1.6c0.4-0.4,1-0.3,1.5,0c0.5,0.3,1,0.8,1.5,1.3
				c-0.3-0.6-0.7-1.2-1.3-1.6c-0.3-0.2-0.6-0.4-1-0.5c-0.4-0.1-0.8,0.1-1.1,0.4c-0.6,0.5-0.8,1.2-1,1.9
				C226.4,276.6,226.3,277.2,226.3,277.9z"/></g><path fill="#211915" d="M245.3,287.4c0,0,6.7-2.2,6.7,3.4C251.9,290.9,250.3,287,245.3,287.4z"/><g><path fill="#115072" d="M237.1,305.3C237.1,305.3,237.1,305.3,237.1,305.3c-6.8-2.5-13.9-8.1-14.2-8.4l-0.4-0.3
			c-27.4-8.6-32.2,53.6-32.2,53.6l7,3l26.9,5.8l7.4-10.6l10-14.4l0.3-2l3.4-21.8l0.6-4.6C243.4,306.9,240.3,306.4,237.1,305.3z
			 M234.5,304.7c-6.3-3.7-14.7-4.5-14.7-4.5C226.6,299.1,234.1,304.4,234.5,304.7z M207.1,319.7c0,0-4.8-11.1,2.6-16.8
			C209,303.6,204.4,308.3,207.1,319.7z M212.6,326.2c0.1,0.1,1,0.8,2.3,1.8C214,327.4,213.2,326.8,212.6,326.2z M215,328
			c6.8,4,20.6,6.5,20.6,6.5C225.9,334.5,218.6,330.5,215,328z"/><path fill="#115072" d="M209.7 303c-.7.7-5.4 5.3-2.6 16.8C207.1 319.7 202.3 308.6 209.7 303zM212.6 326.2c.1.1 1 .8 2.3 1.8C214 327.4 213.2 326.8 212.6 326.2zM234.5 304.7c-6.3-3.7-14.7-4.5-14.7-4.5C226.6 299.1 234.1 304.4 234.5 304.7zM235.6 334.5c-9.6 0-17-4-20.6-6.5C221.8 332 235.6 334.5 235.6 334.5z"/><path fill="#0b343f" d="M212.6 326.2c.1.1 1 .8 2.3 1.8C214 327.4 213.2 326.8 212.6 326.2zM235.6 334.5c-9.6 0-17-4-20.6-6.5C221.8 332 235.6 334.5 235.6 334.5zM234.5 304.7c-6.3-3.7-14.7-4.5-14.7-4.5C226.6 299.1 234.1 304.4 234.5 304.7zM207.1 319.7c0 0-4.8-11.1 2.6-16.8C209 303.6 204.4 308.3 207.1 319.7z"/></g><g><path fill="#115072" d="M185.1,386.4l0.6-15.9l-23.4-0.2l-0.3,25.9h9.9h1.9h9.8c0-3.9-3.4-7.3-8.5-9.4c0-0.1,0-0.2,0-0.4H185.1z"/><path fill="#1777c1" d="M280.3,334.6c0,1.5-0.1,3.2-0.3,5.1c-0.2,1.7-0.4,3.5-0.8,5.5c-1.6,9.6-5.2,23-12.4,41.5l-13.6,0.8
					L234,374l-13-12.5l2.6-4.2c0,0,0.5-1,1.4-2.5c0.8-1.4,2-3.4,3.5-5.7c0.2-0.3,0.4-0.7,0.7-1c1.9-2.9,4.2-6.2,6.9-9.5
					c9.9-12.3,24.4-24.8,38.9-17.7c1,0.5,2,1.1,3.1,1.8c0,0,1.9,2.2,2.2,9.4C280.3,332.8,280.3,333.7,280.3,334.6z"/><path fill="#135e91" d="M259.1,344.3c0,0-14,9.1-14.2,27.5C244.9,371.8,248.2,356.1,259.1,344.3z"/><path fill="#115072" d="M277.8,396.2h-32.3c0-5.7,7.2-10.3,16.2-10.3C270.6,385.9,277.8,390.5,277.8,396.2z"/><g><path fill="#1777c1" d="M190.2,350.2c0,0,95.4,12.1,58.4,46h-63.9C184.7,396.2,181,369.4,190.2,350.2z"/><path fill="#135e91" d="M187.6,366.7h34.6C222.3,366.7,204.4,363.3,187.6,366.7z"/><path fill="#135e91" d="M219.8,366.4l2.9-3.3C222.7,363.1,219.9,363.6,219.8,366.4z"/></g><path fill="#135e91" d="M231.1,359.7c0,0,24.3,8,26,23.5C257.1,383.3,258.1,367.7,231.1,359.7z"/></g><g><path fill="#115072" d="M245.3,271.8L245.3,271.8c-1.7,0.2-2.9,1.6-2.9,3.3c0,1.7,1.3,3,2.9,3.2l0,0l56.7,13.4l0.7-30L245.3,271.8z"/><path fill="#1777c1" d="M352.5,262.6L352.5,262.6l-34.8-0.9c-0.6,0-1.8,31.9-1.2,31.9L349,294c0.8,0.1,1.7,0.1,2.5,0.1
			c10.1-0.2,18.2-7.4,18.1-16C369.4,269.8,361.9,263.2,352.5,262.6z"/><circle cx="311.2" cy="277.3" r="18.2" fill="#115072"/><path fill="#13a7e3" d="M325.8,277.1c0.1,8-6.3,14.7-14.3,14.8c-8,0.1-14.6-6.3-14.8-14.3c-0.1-8,6.3-14.6,14.3-14.8
				c3.8-0.1,7.4,1.4,10,3.8c2.8,2.6,4.7,6.2,4.8,10.4C325.8,277,325.8,277,325.8,277.1z"/><ellipse cx="310.6" cy="277.7" fill="#211915" rx="6.7" ry="4.3" transform="rotate(-89.92 310.626 277.714)"/><circle cx="306.9" cy="275.1" r="1.4" fill="#fff"/><g><circle cx="352.4" cy="277.3" r="18.2" fill="#115072"/><path fill="#13a7e3" d="M366.9,277.1v0.2c0,7.9-6.3,14.4-14.3,14.5c-8,0.1-14.7-6.3-14.8-14.3c-0.1-8,6.3-14.6,14.3-14.8
				c4.1-0.1,7.8,1.6,10.5,4.3h0C365.3,269.6,366.9,273.2,366.9,277.1z"/><ellipse cx="352.8" cy="277.3" fill="#211915" rx="4.3" ry="6.7" transform="rotate(-1.996 352.813 277.325)"/><circle cx="349" cy="274.8" r="1.4" fill="#fff"/></g></g><path fill="#115072" d="M207.9,305.2c-1.7,4.2-8.1,24.8,27.7,29.3c0,0-4.6-11.9,5.3-26.1c0,0-21.3-15.2-32.1-4.5
		C208.4,304.2,208.1,304.7,207.9,305.2z"/><path fill="#0b3038" d="M284.8,316.2l-4.5,23l-0.3,0.3l-0.9,0.7l0,0c-6.6,5.3-14.9,8.6-24.7,10c-3.3,0.4-6.7,0.7-10.3,0.7
		c0,0-0.1,0-0.3,0c-0.2,0-0.4,0-0.8-0.1c-2.5-0.2-11.1-1.3-14.4-1.7c0.2-0.3,0.4-0.7,0.7-1c8.7-13.2,26.3-35,44.2-27.9l-1.1-4
		l7.7-2.8L284.8,316.2z"/><g><path fill="#ffae9a" d="M292.8,268.7c-0.1-0.4-0.1-0.8-0.4-1.2c-0.2-0.3-0.6-0.6-1-0.6c-0.4,0-0.7,0.3-1,0.7
			c-0.3,0.4-0.7,0.9-0.8,1.4c0.1-0.9,0.3-1.8,0.3-2.8c0-0.6,0-1.4-0.4-1.8c-0.3-0.3-0.7-0.4-1-0.3c-0.4,0.1-0.8,0.4-1,0.8
			s-0.3,0.8-0.5,1.2c0,0.1-0.1,0.3-0.1,0.4c0.1-0.7,0.1-1.5-0.1-2.2c-0.1-0.3-0.2-0.6-0.4-0.9s-0.5-0.4-0.8-0.4
			c-0.3,0-0.6,0.2-0.8,0.4c-0.2,0.2-0.3,0.5-0.4,0.8c-0.3,0.6-0.5,1.2-0.7,1.9c-0.2,0.5-0.3,1.2-0.6,1.7c-0.2-0.9,0-1.9-0.3-2.8
			c-0.1-0.2-0.2-0.4-0.3-0.5c-0.5-0.5-1.5-0.1-1.7,0.4c-1.3,2.9-1.1,6.9-2.3,10.1c-0.1,0.4-0.3,0.9-0.6,1.3
			c-0.2,0.1-0.3,0.2-0.6,0.2c-0.2,0-0.4-0.2-0.6-0.4c-0.1-0.1-0.2-0.3-0.3-0.5l0,0c-0.1-0.5-0.1-1,0-1.5c0-0.6,0-1.1,0-1.7
			c0-0.5-0.2-1.1-0.6-1.5c-0.3-0.3-0.8-0.3-1.2-0.1c-0.4,0.2-0.7,0.5-0.8,1c-0.1,0.3-0.1,0.5-0.1,0.8c0,0.7,0,1.5,0,2.2
			c-0.1,0.7-0.2,1.4-0.4,2.1c-0.1,0.6-0.4,1.3-0.3,1.9c0,0.1,0,0.1,0,0.1c-0.3,5,2.7,5.9,2.7,5.9c-0.6,1.1-1.2,2.2-1.8,3.3
			c-3.1,5.8-6.3,11.6-9.4,17.4c-1.9,3.5-3.8,7.1-5.8,10.6l-18.1-7.6c-9.2,8.2-10.4,15.2-5.9,26l29.5,3.2c2,0,3.4-0.4,4.4-0.9v0
			c5-1.5,5.6-6.3,5.6-6.3l14.6-43.6c2.8-3.3,3.5-11.2,3.5-11.2c0.1-0.4,0.2-0.8,0.2-1.2c0-0.1,0-0.3,0.1-0.4
			C292.9,272.2,293.1,270.4,292.8,268.7z"/><path fill="#cc8b85" d="M283.2 267.8l-.9 6.8C282.2 274.5 283.6 270 283.2 267.8zM287 266.6l-1.5 8.2C285.4 274.8 286 267.8 287 266.6zM289.7 269.1l-1.4 6C288.2 275.1 290.3 269.5 289.7 269.1z"/></g><path fill="#135e91" d="M280.1,339.3c0,0.1,0.1,0.3,0.1,0.4c-0.2,1.7-0.2,3.1-0.6,5.1c0,0.2-0.5,0.8-0.5,1c-7.1,3.3-15.6,5.1-25.3,5.3
		c0.1-0.2,0.3-0.6,0.5-0.9c9.8-1.4,18.1-4.7,24.7-10l0,0L280.1,339.3z"/><g><path fill="#fff" d="M325.8 276.9l-15.2 1 10.4-11.3C323.8 269.1 325.7 272.8 325.8 276.9zM366.9 277.1v.2l-14.5 0 10.3-10.3h0C365.3 269.6 366.9 273.2 366.9 277.1z" opacity=".53"/></g></g></svg>